<svg width="20" height="20" viewBox="0 0 20 20" fill="none" xmlns="http://www.w3.org/2000/svg">
<path d="M10.1649 14.9784C10.0625 14.9784 9.96821 14.9596 9.882 14.9219C9.79041 14.8842 9.7069 14.8276 9.63147 14.7522L3.35991 8.34321C3.21983 8.19774 3.14978 8.02263 3.14978 7.81789C3.14978 7.6778 3.18211 7.55388 3.24677 7.44612C3.31142 7.33297 3.40032 7.24407 3.51347 7.17942C3.62123 7.10938 3.74515 7.07435 3.88524 7.07435C4.08459 7.07435 4.2597 7.14709 4.41056 7.29256L10.1649 13.1762L15.9192 7.29256C16.07 7.14709 16.2452 7.07435 16.4445 7.07435C16.5846 7.07435 16.7085 7.10937 16.8163 7.17942C16.9294 7.24407 17.0183 7.33297 17.083 7.44612C17.1476 7.55388 17.18 7.6778 17.18 7.81789C17.18 8.02263 17.1072 8.19774 16.9617 8.34321L10.6983 14.7522C10.6228 14.8276 10.542 14.8842 10.4558 14.9219C10.3642 14.9596 10.2672 14.9784 10.1649 14.9784Z" fill="#749C03"/>
</svg>
