<svg width="24" height="24" viewBox="0 0 24 24" fill="none" xmlns="http://www.w3.org/2000/svg">
<path d="M5.30443 21.9123C4.95363 21.9123 4.72984 21.7974 4.63306 21.5675C4.54234 21.3437 4.58468 21.1169 4.76008 20.8871C4.875 20.7359 5.03831 20.5333 5.25 20.2792C5.46774 20.0312 5.69153 19.7591 5.92137 19.4627C6.15121 19.1663 6.35081 18.879 6.52016 18.6008C6.55645 18.5343 6.5625 18.4708 6.53831 18.4103C6.52016 18.3438 6.47782 18.2923 6.41129 18.256C5.44355 17.7359 4.60585 17.1159 3.89819 16.3962C3.19657 15.6704 2.65524 14.872 2.27419 14.001C1.89919 13.13 1.71169 12.2107 1.71169 11.2429C1.71169 10.0998 1.9748 9.02924 2.50101 8.03125C3.03327 7.03327 3.76814 6.15928 4.70564 5.40928C5.64919 4.65323 6.74395 4.06351 7.98992 3.64012C9.23589 3.21069 10.5726 2.99597 12 2.99597C13.4274 2.99597 14.7641 3.21069 16.0101 3.64012C17.256 4.06351 18.3478 4.65323 19.2853 5.40928C20.2288 6.15928 20.9637 7.03327 21.4899 8.03125C22.0222 9.02924 22.2883 10.0998 22.2883 11.2429C22.2883 12.1442 22.122 13.006 21.7893 13.8286C21.4567 14.6512 20.9758 15.4073 20.3468 16.0968C19.7177 16.7802 18.9556 17.376 18.0605 17.8841C17.1714 18.3921 16.1673 18.7853 15.0484 19.0635C13.9294 19.3417 12.7167 19.4808 11.4103 19.4808C11.3558 19.4808 11.2984 19.4778 11.2379 19.4718C11.1774 19.4718 11.1169 19.4687 11.0565 19.4627C10.996 19.4627 10.9325 19.4748 10.8659 19.499C10.7994 19.5232 10.7268 19.5625 10.6482 19.6169C10.2611 19.8952 9.81653 20.1673 9.31452 20.4335C8.81855 20.7056 8.31351 20.9536 7.79939 21.1774C7.29133 21.4012 6.81653 21.5796 6.375 21.7127C5.93347 21.8458 5.57661 21.9123 5.30443 21.9123Z" fill="#749C03"/>
</svg>
