<svg width="24" height="24" viewBox="0 0 24 24" fill="none" xmlns="http://www.w3.org/2000/svg">
<path d="M12 21.7443C10.7169 21.7443 9.50743 21.4987 8.37166 21.0076C7.24202 20.5164 6.24438 19.838 5.37874 18.9724C4.5131 18.1067 3.8347 17.1091 3.34355 15.9795C2.85241 14.8437 2.60684 13.6342 2.60684 12.3511C2.60684 11.068 2.85241 9.86162 3.34355 8.73198C3.8347 7.59621 4.51003 6.5955 5.36953 5.72985C6.23518 4.86421 7.23282 4.18581 8.36245 3.69467C9.49823 3.20352 10.7077 2.95795 11.9908 2.95795C13.2739 2.95795 14.4834 3.20352 15.6191 3.69467C16.7549 4.18581 17.7556 4.86421 18.6213 5.72985C19.4869 6.5955 20.1653 7.59621 20.6564 8.73198C21.1476 9.86162 21.3932 11.068 21.3932 12.3511C21.3932 13.6342 21.1476 14.8437 20.6564 15.9795C20.1653 17.1091 19.4869 18.1067 18.6213 18.9724C17.7556 19.838 16.7549 20.5164 15.6191 21.0076C14.4895 21.4987 13.2831 21.7443 12 21.7443ZM12 20.1788C13.0867 20.1788 14.1027 19.9762 15.0482 19.571C15.9936 19.1658 16.8255 18.6071 17.5438 17.8949C18.2621 17.1766 18.8208 16.3447 19.2198 15.3993C19.625 14.4538 19.8276 13.4378 19.8276 12.3511C19.8276 11.2645 19.625 10.2484 19.2198 9.30294C18.8146 8.35748 18.2529 7.52561 17.5346 6.8073C16.8224 6.089 15.9906 5.53033 15.039 5.13127C14.0935 4.72607 13.0775 4.52348 11.9908 4.52348C10.9041 4.52348 9.88807 4.72607 8.94262 5.13127C7.99716 5.53033 7.16835 6.089 6.45619 6.8073C5.74403 7.52561 5.18535 8.35748 4.78016 9.30294C4.3811 10.2484 4.18157 11.2645 4.18157 12.3511C4.18157 13.4378 4.3811 14.4538 4.78016 15.3993C5.18535 16.3447 5.74403 17.1766 6.45619 17.8949C7.17449 18.6071 8.00637 19.1658 8.95183 19.571C9.89728 19.9762 10.9133 20.1788 12 20.1788ZM18.2989 18.4198C17.7403 18.9662 17.0834 19.4328 16.3282 19.8196C15.5792 20.2064 14.821 20.5011 14.0536 20.7037C13.2862 20.9124 12.6017 21.0168 12 21.0168C11.4045 21.0168 10.72 20.9124 9.9464 20.7037C9.17898 20.5011 8.41771 20.2064 7.66257 19.8196C6.90743 19.4328 6.25359 18.9662 5.70105 18.4198L5.72868 18.3093C5.88216 17.8612 6.24131 17.4191 6.80613 16.9832C7.37095 16.5473 8.09539 16.1882 8.97945 15.9058C9.86965 15.6234 10.8765 15.4822 12 15.4822C13.1296 15.4822 14.1365 15.6234 15.0205 15.9058C15.9107 16.1882 16.6352 16.5473 17.1939 16.9832C17.7587 17.4191 18.1178 17.8642 18.2713 18.3185L18.2989 18.4198ZM12 13.9166C11.4106 13.9105 10.8765 13.757 10.3976 13.4562C9.92491 13.1492 9.54734 12.7348 9.26493 12.213C8.98866 11.6911 8.84746 11.1018 8.84132 10.4449C8.83518 9.82478 8.97331 9.25689 9.25572 8.74119C9.53813 8.22549 9.91877 7.81415 10.3976 7.50719C10.8765 7.19408 11.4106 7.03753 12 7.03753C12.5894 7.03753 13.1204 7.19408 13.5932 7.50719C14.072 7.81415 14.4527 8.22549 14.7351 8.74119C15.0175 9.25689 15.1587 9.82478 15.1587 10.4449C15.1587 11.1018 15.0175 11.6942 14.7351 12.2222C14.4588 12.7502 14.0812 13.1676 13.6024 13.4746C13.1235 13.7754 12.5894 13.9228 12 13.9166Z" fill="#749C03"/>
</svg>
