<svg width="22" height="18" viewBox="0 0 22 18" fill="none" xmlns="http://www.w3.org/2000/svg">
<path d="M21.1781 14.4C21.1781 15.4125 20.9219 16.1781 20.4094 16.6969C19.8969 17.2156 19.1375 17.475 18.1312 17.475H8.90625C7.90625 17.475 7.15 17.2156 6.6375 16.6969C6.11875 16.1781 5.85938 15.4125 5.85938 14.4L5.85938 11.8406H7.70625V14.2875C7.70625 14.725 7.82188 15.0594 8.05313 15.2906C8.27813 15.5156 8.61875 15.6281 9.075 15.6281H17.9719C18.4281 15.6281 18.7687 15.5156 18.9937 15.2906C19.225 15.0594 19.3406 14.725 19.3406 14.2875V3.72188C19.3406 3.29063 19.225 2.95938 18.9937 2.72813C18.7687 2.49063 18.4281 2.37188 17.9719 2.37188H9.075C8.61875 2.37188 8.27813 2.49063 8.05313 2.72813C7.82188 2.95938 7.70625 3.29063 7.70625 3.72188V6.15H5.85938V3.6C5.85938 2.5875 6.11875 1.82188 6.6375 1.30313C7.15 0.784376 7.90625 0.525001 8.90625 0.525001H18.1312C19.1312 0.525001 19.8875 0.784376 20.4 1.30313C20.9187 1.82188 21.1781 2.5875 21.1781 3.6V14.4ZM15.1031 9C15.1031 9.1125 15.0844 9.22188 15.0469 9.32813C15.0031 9.43438 14.925 9.54688 14.8125 9.66563L11.775 12.8156C11.6125 12.9719 11.4281 13.05 11.2219 13.05C11.0031 13.05 10.825 12.9781 10.6875 12.8344C10.55 12.6844 10.4813 12.5 10.4813 12.2812C10.4813 12.0437 10.5656 11.85 10.7344 11.7L12.1313 10.3875L12.8156 9.77813L11.4188 9.87188H1.70625C1.475 9.87188 1.275 9.7875 1.10625 9.61875C0.937501 9.44375 0.853126 9.2375 0.853126 9C0.853126 8.7625 0.937501 8.55938 1.10625 8.39063C1.275 8.21563 1.475 8.12813 1.70625 8.12813H11.4188L12.8156 8.22188L12.1313 7.62188L10.7344 6.30938C10.5656 6.15313 10.4813 5.95938 10.4813 5.72813C10.4813 5.51563 10.55 5.33438 10.6875 5.18438C10.825 5.02813 11.0031 4.95 11.2219 4.95C11.4281 4.95 11.6125 5.03125 11.775 5.19375L14.8125 8.34375C14.925 8.45625 15.0031 8.56563 15.0469 8.67188C15.0844 8.77813 15.1031 8.8875 15.1031 9Z" fill="#749C03"/>
</svg>
