<svg width="80" height="80" viewBox="0 0 80 80" fill="none" xmlns="http://www.w3.org/2000/svg">
<path d="M24.6169 42.5264H39.4715C40.0406 42.5264 40.5149 42.3367 40.8943 41.9573C41.2738 41.5778 41.4635 41.1036 41.4635 40.5344V21.3544C41.4635 20.8042 41.2738 20.3394 40.8943 19.96C40.5149 19.5805 40.0406 19.3908 39.4715 19.3908C38.9213 19.3908 38.4565 19.5805 38.0771 19.96C37.6977 20.3394 37.5079 20.8042 37.5079 21.3544V38.5709H24.6169C24.0478 38.5709 23.5735 38.7606 23.1941 39.14C22.8146 39.5194 22.6249 39.9842 22.6249 40.5344C22.6249 41.1036 22.8146 41.5778 23.1941 41.9573C23.5735 42.3367 24.0478 42.5264 24.6169 42.5264ZM39.4999 68.4792C35.5349 68.4792 31.7976 67.7204 28.2879 66.2027C24.7971 64.6849 21.7143 62.5886 19.0393 59.9137C16.3644 57.2387 14.268 54.1558 12.7503 50.6651C11.2326 47.1554 10.4738 43.4181 10.4738 39.453C10.4738 35.488 11.2326 31.7602 12.7503 28.2694C14.268 24.7597 16.3549 21.6674 19.0109 18.9924C21.6858 16.3175 24.7687 14.2211 28.2594 12.7034C31.7691 11.1857 35.5065 10.4269 39.4715 10.4269C43.4365 10.4269 47.1739 11.1857 50.6836 12.7034C54.1933 14.2211 57.2856 16.3175 59.9605 18.9924C62.6355 21.6674 64.7318 24.7597 66.2496 28.2694C67.7673 31.7602 68.5261 35.488 68.5261 39.453C68.5261 43.4181 67.7673 47.1554 66.2496 50.6651C64.7318 54.1558 62.6355 57.2387 59.9605 59.9137C57.2856 62.5886 54.1933 64.6849 50.6836 66.2027C47.1928 67.7204 43.465 68.4792 39.4999 68.4792Z" fill="#749C03"/>
</svg>
