<svg width="80" height="80" viewBox="0 0 80 80" fill="none" xmlns="http://www.w3.org/2000/svg">
<g clip-path="url(#clip0_624_9461)">
<path d="M55.4621 18.4478C59.7635 18.4478 63.2505 14.9608 63.2505 10.6595C63.2505 6.35806 59.7635 2.87109 55.4621 2.87109C51.1607 2.87109 47.6737 6.35806 47.6737 10.6595C47.6737 14.9608 51.1607 18.4478 55.4621 18.4478Z" fill="#749C03"/>
<path d="M47.8426 42.0823C47.5387 41.9247 46.8409 41.5533 46.6608 40.878C46.492 40.2365 46.8521 39.6175 47.111 39.2461C49.5533 35.6558 51.9956 32.0542 54.4492 28.4639C55.4283 25.9091 55.0682 23.0728 53.4475 21.092C51.084 18.1995 47.0997 18.4246 46.9872 18.4471C46.9872 18.4471 46.8521 18.4696 46.6833 18.4583C46.6383 18.4583 46.5933 18.4471 46.537 18.4471L28.2591 18.3008H28.2366C26.9648 18.3008 25.7943 19.0211 25.2203 20.1578L20.1331 30.2197C19.289 31.8854 19.9643 33.9113 21.6187 34.7554C22.1027 35.003 22.6317 35.1155 23.1382 35.1155C24.3762 35.1155 25.5579 34.4402 26.1545 33.2585L30.2962 25.0649L38.8274 25.1325C36.6102 29.6682 33.4363 36.1397 32.0858 39.9889C31.1854 42.555 31.9057 45.3687 34.3705 46.5167L54.8318 56.0271C56.5763 59.7749 58.3208 63.534 60.0653 67.2819C60.6281 69.9831 63.3517 71.4124 65.3889 70.7259C67.471 70.0281 68.7766 67.1468 67.4823 64.637C65.9629 60.5628 64.4435 56.4885 62.9241 52.4142C62.789 51.8177 62.4514 50.726 61.5735 49.6455C60.6506 48.4976 59.5814 47.9348 59.0186 47.6872C53.2336 44.8397 49.0468 42.7126 47.8313 42.0935L47.8426 42.0823Z" fill="#749C03"/>
<path d="M45.6141 54.216C45.7041 54.8012 45.7604 55.409 45.7604 56.0167C45.7604 62.5896 40.4143 67.9356 33.8415 67.9356C27.2687 67.9356 21.9226 62.5896 21.9226 56.0167C21.9226 50.817 25.2766 46.3938 29.9361 44.7731C29.3171 43.1187 29.2833 41.1716 29.9586 39.2358C30.3638 38.0765 30.9265 36.7034 31.568 35.2178C29.4859 35.4429 27.4938 35.9718 25.6367 36.7597C25.5354 36.816 25.4229 36.8722 25.3216 36.9173C18.0284 40.1812 12.93 47.4968 12.93 56.0167C12.93 67.5755 22.294 76.9395 33.8528 76.9395C43.9484 76.9395 52.367 69.7927 54.3366 60.2823L53.1436 57.7162L45.6141 54.216Z" fill="#749C03"/>
<path d="M45.2764 37.9415L52.4233 27.4295C53.0198 25.6624 52.7497 23.8054 51.703 22.5223C50.2173 20.699 47.5612 20.6878 47.201 20.6878C47.0435 20.7103 46.8184 20.7216 46.5595 20.7103H46.3907L28.2366 20.5527C27.7977 20.5527 27.415 20.7891 27.2237 21.1718L22.1365 31.2336C21.8551 31.7851 22.0802 32.4716 22.6317 32.7417C22.7892 32.8205 22.9581 32.8655 23.1381 32.8655C23.4758 32.8655 23.9147 32.708 24.1511 32.2465L28.9231 22.8037L42.4177 22.9163L40.6507 26.5516C39.3676 29.174 37.8145 32.3703 36.4864 35.2853C39.5927 35.6793 42.4852 36.7485 45.0063 38.3467C45.0851 38.2116 45.1639 38.0765 45.2652 37.9302L45.2764 37.9415Z" fill="#749C03"/>
<path d="M56.5313 54.3292L62.215 66.5632L62.2713 66.8221C62.4626 67.7225 63.0591 68.1839 63.3855 68.3752C63.8244 68.6228 64.3196 68.7016 64.6685 68.5891C65.0287 68.4653 65.3776 68.0939 65.5802 67.6099C65.7265 67.2385 65.9178 66.4957 65.4789 65.6628L65.3663 65.4152L60.7293 52.9223C60.6168 52.4496 60.3692 51.7406 59.8177 51.0653C59.2437 50.345 58.5684 49.951 58.0957 49.7485C56.0698 48.758 54.2691 47.8576 52.7271 47.0811C53.6613 49.0507 54.3028 51.1778 54.5842 53.4288L56.52 54.3292H56.5313Z" fill="#749C03"/>
<path d="M35.3272 44.469L42.4402 47.7666C40.4819 45.7295 37.8145 44.3902 34.8207 44.1426C34.967 44.2664 35.1358 44.3789 35.3272 44.469Z" fill="#749C03"/>
<path d="M42.4402 47.7783C43.4419 48.8138 44.2522 50.0293 44.8262 51.3686L54.7755 55.9944C54.7755 55.1277 54.708 54.2724 54.5955 53.4283L42.4402 47.7783Z" fill="#749C03"/>
<path d="M44.4886 41.4422C44.7812 42.5565 45.5578 43.4456 46.8184 44.0871C47.1448 44.2559 49.2832 45.3477 52.7497 47.0697C52.1419 45.7866 51.4104 44.5711 50.555 43.4568C49.2494 42.8041 48.3153 42.3201 47.8426 42.0838C47.5387 41.9262 46.8409 41.5548 46.6608 40.8795C46.5483 40.4405 46.6833 40.0129 46.8634 39.664C46.2781 39.1913 45.6591 38.7636 45.0176 38.3584C44.2635 39.6302 44.2973 40.7332 44.4886 41.4535V41.4422Z" fill="#749C03"/>
<path d="M32.1758 44.2322C32.7273 44.1534 33.2788 44.0971 33.8528 44.0971C34.1792 44.0971 34.5056 44.1196 34.8207 44.1421C33.864 43.343 33.7965 41.9249 34.2242 40.7207C34.7419 39.235 35.5635 37.3217 36.4977 35.2733C35.7098 35.172 34.922 35.1157 34.1116 35.1045C33.3013 36.9165 32.581 38.616 32.1083 39.9778C31.6018 41.4297 31.6243 42.9604 32.1871 44.2209L32.1758 44.2322Z" fill="#749C03"/>
</g>
<defs>
<clipPath id="clip0_624_9461">
<rect width="55.07" height="74.0682" fill="white" transform="translate(12.93 2.87109)"/>
</clipPath>
</defs>
</svg>
