<svg width="73" height="57" viewBox="0 0 73 57" fill="none" xmlns="http://www.w3.org/2000/svg">
<path d="M22.4956 56.1451C21.2011 56.1451 20.1812 55.8607 19.4358 55.2919C18.7101 54.7231 18.3473 53.9385 18.3473 52.9382C18.3473 51.3691 18.818 49.7215 19.7595 47.9955C20.7009 46.2695 22.0543 44.6513 23.8196 43.141C25.6044 41.6308 27.7522 40.4049 30.2628 39.4634C32.793 38.5023 35.6272 38.0218 38.7654 38.0218C41.9037 38.0218 44.7281 38.5023 47.2387 39.4634C49.7492 40.4049 51.8872 41.6308 53.6524 43.141C55.4373 44.6513 56.8005 46.2695 57.7419 47.9955C58.6834 49.7215 59.1541 51.3691 59.1541 52.9382C59.1541 53.9385 58.7815 54.7231 58.0361 55.2919C57.3104 55.8607 56.3003 56.1451 55.0058 56.1451H22.4956ZM38.7654 33.6969C37.0394 33.6969 35.4408 33.2262 33.9698 32.2847C32.4987 31.3432 31.3121 30.0683 30.4099 28.46C29.5076 26.8516 29.0565 25.0471 29.0565 23.0465C29.0565 21.0655 29.5076 19.2904 30.4099 17.7213C31.3121 16.1326 32.4987 14.8773 33.9698 13.9554C35.4408 13.0336 37.0394 12.5727 38.7654 12.5727C40.4914 12.5727 42.09 13.0238 43.561 13.926C45.0321 14.8283 46.2089 16.0639 47.0915 17.6331C47.9938 19.2022 48.4449 20.9871 48.4449 22.9877C48.4449 25.0079 47.9938 26.832 47.0915 28.46C46.2089 30.0683 45.0321 31.3432 43.561 32.2847C42.09 33.2262 40.4914 33.6969 38.7654 33.6969ZM4.40173 44.1708C3.00914 44.1708 1.95979 43.8275 1.25369 43.141C0.547582 42.4546 0.19453 41.415 0.19453 40.0224V33.9323C0.19453 32.5593 0.547582 31.5296 1.25369 30.8431C1.95979 30.1566 3.00914 29.8133 4.40173 29.8133H10.3448C11.7374 29.8133 12.7867 30.1566 13.4928 30.8431C14.1989 31.5296 14.552 32.5593 14.552 33.9323V40.0224C14.552 41.3954 14.1989 42.4349 13.4928 43.141C12.7867 43.8275 11.7374 44.1708 10.3448 44.1708H4.40173ZM12.2277 22.9288C10.8351 22.9288 9.78576 22.5856 9.07966 21.8991C8.37356 21.2126 8.02051 20.1829 8.02051 18.8099V4.51132C8.02051 3.13834 8.37356 2.1086 9.07966 1.42211C9.78576 0.735625 10.8351 0.39238 12.2277 0.39238H33.5873C34.9995 0.39238 36.0587 0.735625 36.7648 1.42211C37.4709 2.1086 37.8239 3.13834 37.8239 4.51132V8.60083C35.4507 8.77735 33.3029 9.52269 31.3808 10.8368C29.4586 12.151 27.9287 13.8672 26.7911 15.9855C25.6535 18.0842 25.0749 20.3986 25.0552 22.9288H12.2277ZM59.8897 38.5808C58.4775 38.5808 57.4183 38.2375 56.7122 37.5511C56.0257 36.8646 55.6825 35.8348 55.6825 34.4619V17.3094C55.6825 15.9365 56.0257 14.9067 56.7122 14.2202C57.4183 13.5337 58.4775 13.1905 59.8897 13.1905H68.5689C69.9811 13.1905 71.0402 13.5337 71.7463 14.2202C72.4524 14.9067 72.8055 15.9365 72.8055 17.3094V34.4619C72.8055 35.8348 72.4524 36.8646 71.7463 37.5511C71.0402 38.2375 69.9811 38.5808 68.5689 38.5808H59.8897Z" fill="#749C03"/>
</svg>
