<svg width="60" height="52" viewBox="0 0 60 52" fill="none" xmlns="http://www.w3.org/2000/svg">
<path d="M0.879815 1.99476C1.10147 1.05271 1.56326 0.526279 2.26517 0.415451C2.96708 0.286151 3.60435 0.517043 4.17696 1.10813C5.5069 2.53043 6.9292 3.57406 8.44386 4.23903C9.95851 4.88553 11.5009 5.30114 13.0709 5.48585C14.641 5.6521 16.1649 5.73522 17.6426 5.73522C19.0095 5.73522 20.4687 5.64286 22.0203 5.45815C23.5719 5.27343 25.142 5.09795 26.7306 4.93171C28.3191 4.747 29.8522 4.65464 31.3299 4.65464C35.7446 4.65464 39.6513 5.38426 43.0501 6.8435C46.4673 8.30274 49.1456 10.5193 51.0851 13.4932C53.0246 16.4486 53.9944 20.1799 53.9944 24.6869C53.9944 25.2964 53.9759 25.906 53.939 26.5156C53.902 27.1066 53.8466 27.5961 53.7727 27.984C53.6988 28.4828 53.4218 28.8152 52.9415 28.9815C52.4797 29.1293 52.0179 29 51.5561 28.5936C49.5612 26.7465 47.5571 25.3703 45.5437 24.4652C43.5488 23.5601 41.5631 22.9229 39.5867 22.5534C37.6102 22.184 35.6615 21.9254 33.7405 21.7776C31.8194 21.6299 29.9353 21.4174 28.0882 21.1404C26.2411 20.8448 24.4493 20.3276 22.713 19.5888C20.9767 18.8314 19.3143 17.6585 17.7257 16.07C17.264 15.6082 16.8391 15.5158 16.4512 15.7929C16.0818 16.0515 15.9894 16.4209 16.1741 16.9012C16.9684 18.9515 18.1044 20.5493 19.5821 21.6945C21.0598 22.8397 22.7777 23.7171 24.7356 24.3267C26.7121 24.9178 28.8271 25.4073 31.0806 25.7952C33.3526 26.1831 35.6707 26.6449 38.0351 27.1805C40.4179 27.7162 42.7545 28.492 45.045 29.5079C47.3539 30.5239 49.5243 31.9646 51.5561 33.8302C52.2581 34.5137 53.08 35.4003 54.0221 36.4901C54.9826 37.5615 55.9062 38.7344 56.7928 40.0089C57.6979 41.265 58.4367 42.5026 59.0094 43.7217C59.6004 44.9408 59.896 46.0306 59.896 46.9911C59.896 48.2102 59.5358 49.2169 58.8154 50.0112C58.095 50.8055 57.2269 51.2026 56.2109 51.2026C55.7307 51.2026 55.2781 51.0641 54.8533 50.787C54.4469 50.5284 54.1329 50.0666 53.9112 49.4016C53.3017 47.4991 52.6829 45.7628 52.0549 44.1927C51.4453 42.6042 50.7249 41.1357 49.8937 39.7873C49.081 38.4204 48.0743 37.1089 46.8736 35.8529L50.337 35.936C50.0969 36.3978 49.6628 37.0166 49.0348 37.7924C48.4252 38.5497 47.6033 39.3717 46.5689 40.2583C45.5529 41.1264 44.3153 41.9484 42.8561 42.7242C41.3969 43.5 39.6975 44.1373 37.758 44.636C35.837 45.1347 33.6666 45.3841 31.2468 45.3841C26.5366 45.3841 22.2697 44.5714 18.4461 42.9459C14.6225 41.3019 11.3346 38.9653 8.58239 35.936C5.84862 32.9067 3.74288 29.2863 2.26517 25.0748C0.805929 20.8633 0.0763081 16.1623 0.0763081 10.9719C0.0763081 9.73428 0.131722 8.28427 0.242551 6.62185C0.371851 4.95942 0.584272 3.41706 0.879815 1.99476Z" fill="#749C03"/>
</svg>
