<svg width="152" height="44" viewBox="0 0 152 44" fill="none" xmlns="http://www.w3.org/2000/svg">
<rect x="0.5" y="0.5" width="151" height="43" rx="21.5" fill="white" fill-opacity="0.1"/>
<rect x="0.5" y="0.5" width="151" height="43" rx="21.5" stroke="white"/>
<path d="M33.6921 22.1719V23.5781H20.8171V22.1719H26.364V20.9375H22.489V15.6562H24.2078V17H30.3015V15.6562H32.0203V20.9375H28.114V22.1719H33.6921ZM27.239 24.3594C30.2859 24.3594 32.1296 25.2656 32.1453 26.875C32.1296 28.4844 30.2859 29.375 27.239 29.375C24.1453 29.375 22.3328 28.4844 22.3328 26.875C22.3328 25.2656 24.1453 24.3594 27.239 24.3594ZM27.239 25.6875C25.1765 25.7031 24.0671 26.0781 24.0671 26.875C24.0671 27.6562 25.1765 28.0469 27.239 28.0469C29.2546 28.0469 30.364 27.6562 30.3796 26.875C30.364 26.0781 29.2546 25.7031 27.239 25.6875ZM24.2078 19.5781H30.3015V18.3281H24.2078V19.5781ZM39.7817 18.6562C39.7661 21.1719 41.0317 23.7344 43.2192 24.7812L42.1567 26.1719C40.6255 25.3984 39.5239 23.9062 38.9224 22.1094C38.3052 24.0312 37.1489 25.625 35.5317 26.4375L34.4692 25.0469C36.7349 23.9688 38.0317 21.2656 38.0474 18.6562V16.4062H39.7817V18.6562ZM45.7974 15.2656V20.7969H47.9692V22.2812H45.7974V29.3906H44.063V15.2656H45.7974ZM57.8828 18.6562C57.8672 21.25 59.2266 23.8438 61.5234 24.8281L60.4922 26.2188C58.8672 25.4688 57.6719 23.9688 57.0234 22.125C56.375 24.1172 55.1641 25.7422 53.4453 26.5469L52.3828 25.0938C54.7422 24.0781 56.1172 21.375 56.1172 18.6562V16.4062H57.8828V18.6562ZM64.2891 15.2656V29.4062H62.5391V15.2656H64.2891ZM71.5193 17.7188C71.5193 19.4531 72.6443 21.1719 74.863 21.9062L73.988 23.25C72.4099 22.7266 71.2849 21.6641 70.6755 20.3438C70.0427 21.7891 68.8708 22.9375 67.2224 23.5L66.3005 22.1562C68.5818 21.4062 69.7693 19.5781 69.7693 17.7188V17.5469H66.7849V16.1562H74.4568V17.5469H71.5193V17.7188ZM77.5974 15.2656V18.7969H79.5662V20.25H77.5974V23.7812H75.863V15.2656H77.5974ZM77.5974 24.4375V29.3906H75.863V25.8281H68.1912V24.4375H77.5974ZM91.437 15.2656V20.8906H93.6089V22.3281H91.437V29.3906H89.7183V15.2656H91.437ZM88.6245 17.4375V18.8281H80.2964V17.4375H83.6401V15.4688H85.3745V17.4375H88.6245ZM84.5151 19.75C86.5464 19.75 88.062 21.125 88.062 23.0781C88.062 25.0312 86.5464 26.3906 84.5151 26.3906C82.4526 26.3906 80.937 25.0312 80.9526 23.0781C80.937 21.125 82.4526 19.75 84.5151 19.75ZM84.5151 21.1719C83.4058 21.1719 82.6089 21.9219 82.6089 23.0781C82.6089 24.2344 83.4058 24.9688 84.5151 24.9531C85.5933 24.9688 86.3901 24.2344 86.4058 23.0781C86.3901 21.9219 85.5933 21.1719 84.5151 21.1719ZM106.089 15.2656V29.3906H104.339V15.2656H106.089ZM101.87 16.7656C101.87 20.9688 100.245 24.5469 95.2922 26.8906L94.386 25.5C98.0813 23.7422 99.8 21.3516 100.105 18.1406H95.1047V16.7656H101.87Z" fill="white"/>
<path d="M133.974 21.9978C133.974 21.875 133.952 21.7619 133.906 21.6584C133.861 21.5485 133.793 21.4483 133.703 21.3578L126.012 13.8319C125.837 13.6638 125.627 13.5797 125.381 13.5797C125.213 13.5797 125.065 13.6185 124.935 13.6961C124.8 13.7737 124.693 13.8804 124.615 14.0162C124.531 14.1455 124.489 14.2942 124.489 14.4623C124.489 14.7015 124.577 14.9116 124.751 15.0927L131.811 21.9978L124.751 28.903C124.577 29.0841 124.489 29.2942 124.489 29.5334C124.489 29.7015 124.531 29.8502 124.615 29.9795C124.693 30.1153 124.8 30.222 124.935 30.2996C125.065 30.3772 125.213 30.4159 125.381 30.4159C125.627 30.4159 125.837 30.3287 126.012 30.1541L133.703 22.6379C133.793 22.5474 133.861 22.4504 133.906 22.347C133.952 22.2371 133.974 22.1207 133.974 21.9978Z" fill="white"/>
</svg>
