<svg width="109" height="48" viewBox="0 0 109 48" fill="none" xmlns="http://www.w3.org/2000/svg">
<rect width="109" height="48" fill="#749C03"/>
<path d="M35.1406 26.0703C35.1406 25.8359 35.1042 25.6276 35.0312 25.4453C34.9635 25.263 34.8411 25.0964 34.6641 24.9453C34.487 24.7943 34.237 24.6484 33.9141 24.5078C33.5964 24.362 33.1901 24.2135 32.6953 24.0625C32.1536 23.8958 31.6536 23.7109 31.1953 23.5078C30.7422 23.2995 30.3464 23.0599 30.0078 22.7891C29.6693 22.513 29.4062 22.1979 29.2188 21.8438C29.0312 21.4844 28.9375 21.0703 28.9375 20.6016C28.9375 20.138 29.0339 19.7161 29.2266 19.3359C29.4245 18.9557 29.7031 18.6276 30.0625 18.3516C30.4271 18.0703 30.8568 17.8542 31.3516 17.7031C31.8464 17.5469 32.3932 17.4688 32.9922 17.4688C33.8359 17.4688 34.5625 17.625 35.1719 17.9375C35.7865 18.25 36.2578 18.6693 36.5859 19.1953C36.9193 19.7214 37.0859 20.3021 37.0859 20.9375H35.1406C35.1406 20.5625 35.0599 20.2318 34.8984 19.9453C34.7422 19.6536 34.5026 19.4245 34.1797 19.2578C33.862 19.0911 33.4583 19.0078 32.9688 19.0078C32.5052 19.0078 32.1198 19.0781 31.8125 19.2188C31.5052 19.3594 31.276 19.5495 31.125 19.7891C30.974 20.0286 30.8984 20.2995 30.8984 20.6016C30.8984 20.8151 30.9479 21.0104 31.0469 21.1875C31.1458 21.3594 31.2969 21.5208 31.5 21.6719C31.7031 21.8177 31.9583 21.9557 32.2656 22.0859C32.5729 22.2161 32.9349 22.3411 33.3516 22.4609C33.9818 22.6484 34.5312 22.8568 35 23.0859C35.4688 23.3099 35.8594 23.5651 36.1719 23.8516C36.4844 24.138 36.7188 24.4635 36.875 24.8281C37.0312 25.1875 37.1094 25.5964 37.1094 26.0547C37.1094 26.5339 37.013 26.9661 36.8203 27.3516C36.6276 27.7318 36.3516 28.0573 35.9922 28.3281C35.638 28.5938 35.2109 28.7995 34.7109 28.9453C34.2161 29.0859 33.6641 29.1562 33.0547 29.1562C32.5078 29.1562 31.9688 29.0833 31.4375 28.9375C30.9115 28.7917 30.4323 28.5703 30 28.2734C29.5677 27.9714 29.224 27.5964 28.9688 27.1484C28.7135 26.6953 28.5859 26.1667 28.5859 25.5625H30.5469C30.5469 25.9323 30.6094 26.2474 30.7344 26.5078C30.8646 26.7682 31.0443 26.9818 31.2734 27.1484C31.5026 27.3099 31.7682 27.4297 32.0703 27.5078C32.3776 27.5859 32.7057 27.625 33.0547 27.625C33.513 27.625 33.8958 27.5599 34.2031 27.4297C34.5156 27.2995 34.75 27.1172 34.9062 26.8828C35.0625 26.6484 35.1406 26.3776 35.1406 26.0703ZM41.1719 20.5469V29H39.2812V20.5469H41.1719ZM39.1562 18.3281C39.1562 18.0417 39.25 17.8047 39.4375 17.6172C39.6302 17.4245 39.8958 17.3281 40.2344 17.3281C40.5677 17.3281 40.8307 17.4245 41.0234 17.6172C41.2161 17.8047 41.3125 18.0417 41.3125 18.3281C41.3125 18.6094 41.2161 18.8438 41.0234 19.0312C40.8307 19.2188 40.5677 19.3125 40.2344 19.3125C39.8958 19.3125 39.6302 19.2188 39.4375 19.0312C39.25 18.8438 39.1562 18.6094 39.1562 18.3281ZM49.1484 20.5469H50.8594V28.7656C50.8594 29.526 50.6979 30.1719 50.375 30.7031C50.0521 31.2344 49.6016 31.638 49.0234 31.9141C48.4453 32.1953 47.776 32.3359 47.0156 32.3359C46.6927 32.3359 46.3333 32.2891 45.9375 32.1953C45.5469 32.1016 45.1667 31.9505 44.7969 31.7422C44.4323 31.5391 44.1276 31.2708 43.8828 30.9375L44.7656 29.8281C45.0677 30.1875 45.401 30.4505 45.7656 30.6172C46.1302 30.7839 46.513 30.8672 46.9141 30.8672C47.3464 30.8672 47.7135 30.7865 48.0156 30.625C48.3229 30.4688 48.5599 30.237 48.7266 29.9297C48.8932 29.6224 48.9766 29.2474 48.9766 28.8047V22.4609L49.1484 20.5469ZM43.4062 24.8672V24.7031C43.4062 24.0625 43.4844 23.4792 43.6406 22.9531C43.7969 22.4219 44.0208 21.9661 44.3125 21.5859C44.6042 21.2005 44.9583 20.9062 45.375 20.7031C45.7917 20.4948 46.263 20.3906 46.7891 20.3906C47.3359 20.3906 47.8021 20.4896 48.1875 20.6875C48.5781 20.8854 48.9036 21.1693 49.1641 21.5391C49.4245 21.9036 49.6276 22.3411 49.7734 22.8516C49.9245 23.3568 50.0365 23.9193 50.1094 24.5391V25.0625C50.0417 25.6667 49.9271 26.2188 49.7656 26.7188C49.6042 27.2188 49.3906 27.651 49.125 28.0156C48.8594 28.3802 48.5312 28.6615 48.1406 28.8594C47.7552 29.0573 47.2995 29.1562 46.7734 29.1562C46.2578 29.1562 45.7917 29.0495 45.375 28.8359C44.9635 28.6224 44.6094 28.3229 44.3125 27.9375C44.0208 27.5521 43.7969 27.099 43.6406 26.5781C43.4844 26.0521 43.4062 25.4818 43.4062 24.8672ZM45.2891 24.7031V24.8672C45.2891 25.2526 45.3255 25.612 45.3984 25.9453C45.4766 26.2786 45.5938 26.5729 45.75 26.8281C45.9115 27.0781 46.1146 27.276 46.3594 27.4219C46.6094 27.5625 46.9036 27.6328 47.2422 27.6328C47.6849 27.6328 48.0469 27.5391 48.3281 27.3516C48.6146 27.1641 48.8333 26.9115 48.9844 26.5938C49.1406 26.2708 49.25 25.9115 49.3125 25.5156V24.1016C49.2812 23.7943 49.2161 23.5078 49.1172 23.2422C49.0234 22.9766 48.8958 22.7448 48.7344 22.5469C48.5729 22.3438 48.3698 22.1875 48.125 22.0781C47.8802 21.9635 47.5911 21.9062 47.2578 21.9062C46.9193 21.9062 46.625 21.9792 46.375 22.125C46.125 22.2708 45.9193 22.4714 45.7578 22.7266C45.6016 22.9818 45.4844 23.2786 45.4062 23.6172C45.3281 23.9557 45.2891 24.3177 45.2891 24.7031ZM55.1797 22.3516V29H53.2969V20.5469H55.0703L55.1797 22.3516ZM54.8438 24.4609L54.2344 24.4531C54.2396 23.8542 54.3229 23.3047 54.4844 22.8047C54.651 22.3047 54.8802 21.875 55.1719 21.5156C55.4688 21.1562 55.8229 20.8802 56.2344 20.6875C56.6458 20.4896 57.1042 20.3906 57.6094 20.3906C58.0156 20.3906 58.3828 20.4479 58.7109 20.5625C59.0443 20.6719 59.3281 20.8516 59.5625 21.1016C59.8021 21.3516 59.9844 21.6771 60.1094 22.0781C60.2344 22.474 60.2969 22.9609 60.2969 23.5391V29H58.4062V23.5312C58.4062 23.125 58.3464 22.8047 58.2266 22.5703C58.112 22.3307 57.9427 22.1615 57.7188 22.0625C57.5 21.9583 57.2266 21.9062 56.8984 21.9062C56.5755 21.9062 56.2865 21.974 56.0312 22.1094C55.776 22.2448 55.5599 22.4297 55.3828 22.6641C55.2109 22.8984 55.0781 23.1693 54.9844 23.4766C54.8906 23.7839 54.8438 24.112 54.8438 24.4609ZM69.4844 17.625V29H67.5234V17.625H69.4844ZM74.1016 22.3516V29H72.2188V20.5469H73.9922L74.1016 22.3516ZM73.7656 24.4609L73.1562 24.4531C73.1615 23.8542 73.2448 23.3047 73.4062 22.8047C73.5729 22.3047 73.8021 21.875 74.0938 21.5156C74.3906 21.1562 74.7448 20.8802 75.1562 20.6875C75.5677 20.4896 76.026 20.3906 76.5312 20.3906C76.9375 20.3906 77.3047 20.4479 77.6328 20.5625C77.9661 20.6719 78.25 20.8516 78.4844 21.1016C78.724 21.3516 78.9062 21.6771 79.0312 22.0781C79.1562 22.474 79.2188 22.9609 79.2188 23.5391V29H77.3281V23.5312C77.3281 23.125 77.2682 22.8047 77.1484 22.5703C77.0339 22.3307 76.8646 22.1615 76.6406 22.0625C76.4219 21.9583 76.1484 21.9062 75.8203 21.9062C75.4974 21.9062 75.2083 21.974 74.9531 22.1094C74.6979 22.2448 74.4818 22.4297 74.3047 22.6641C74.1328 22.8984 74 23.1693 73.9062 23.4766C73.8125 23.7839 73.7656 24.112 73.7656 24.4609Z" fill="white"/>
</svg>
