<svg width="103" height="48" viewBox="0 0 103 48" fill="none" xmlns="http://www.w3.org/2000/svg">
<path d="M36.2812 27.4453V29H30.5703V27.4453H36.2812ZM31.1172 17.625V29H29.1562V17.625H31.1172ZM37.75 24.8672V24.6875C37.75 24.0781 37.8385 23.513 38.0156 22.9922C38.1927 22.4661 38.4479 22.0104 38.7812 21.625C39.1198 21.2344 39.5312 20.9323 40.0156 20.7188C40.5052 20.5 41.0573 20.3906 41.6719 20.3906C42.2917 20.3906 42.8438 20.5 43.3281 20.7188C43.8177 20.9323 44.2318 21.2344 44.5703 21.625C44.9089 22.0104 45.1667 22.4661 45.3438 22.9922C45.5208 23.513 45.6094 24.0781 45.6094 24.6875V24.8672C45.6094 25.4766 45.5208 26.0417 45.3438 26.5625C45.1667 27.0833 44.9089 27.5391 44.5703 27.9297C44.2318 28.3151 43.8203 28.6172 43.3359 28.8359C42.8516 29.0495 42.3021 29.1562 41.6875 29.1562C41.0677 29.1562 40.513 29.0495 40.0234 28.8359C39.5391 28.6172 39.1276 28.3151 38.7891 27.9297C38.4505 27.5391 38.1927 27.0833 38.0156 26.5625C37.8385 26.0417 37.75 25.4766 37.75 24.8672ZM39.6328 24.6875V24.8672C39.6328 25.2474 39.6719 25.6068 39.75 25.9453C39.8281 26.2839 39.9505 26.5807 40.1172 26.8359C40.2839 27.0911 40.4974 27.2917 40.7578 27.4375C41.0182 27.5833 41.3281 27.6562 41.6875 27.6562C42.0365 27.6562 42.3385 27.5833 42.5938 27.4375C42.8542 27.2917 43.0677 27.0911 43.2344 26.8359C43.401 26.5807 43.5234 26.2839 43.6016 25.9453C43.6849 25.6068 43.7266 25.2474 43.7266 24.8672V24.6875C43.7266 24.3125 43.6849 23.9583 43.6016 23.625C43.5234 23.2865 43.3984 22.987 43.2266 22.7266C43.0599 22.4661 42.8464 22.263 42.5859 22.1172C42.3307 21.9661 42.026 21.8906 41.6719 21.8906C41.3177 21.8906 41.0104 21.9661 40.75 22.1172C40.4948 22.263 40.2839 22.4661 40.1172 22.7266C39.9505 22.987 39.8281 23.2865 39.75 23.625C39.6719 23.9583 39.6328 24.3125 39.6328 24.6875ZM53.1016 20.5469H54.8125V28.7656C54.8125 29.526 54.651 30.1719 54.3281 30.7031C54.0052 31.2344 53.5547 31.638 52.9766 31.9141C52.3984 32.1953 51.7292 32.3359 50.9688 32.3359C50.6458 32.3359 50.2865 32.2891 49.8906 32.1953C49.5 32.1016 49.1198 31.9505 48.75 31.7422C48.3854 31.5391 48.0807 31.2708 47.8359 30.9375L48.7188 29.8281C49.0208 30.1875 49.3542 30.4505 49.7188 30.6172C50.0833 30.7839 50.4661 30.8672 50.8672 30.8672C51.2995 30.8672 51.6667 30.7865 51.9688 30.625C52.276 30.4688 52.513 30.237 52.6797 29.9297C52.8464 29.6224 52.9297 29.2474 52.9297 28.8047V22.4609L53.1016 20.5469ZM47.3594 24.8672V24.7031C47.3594 24.0625 47.4375 23.4792 47.5938 22.9531C47.75 22.4219 47.974 21.9661 48.2656 21.5859C48.5573 21.2005 48.9115 20.9062 49.3281 20.7031C49.7448 20.4948 50.2161 20.3906 50.7422 20.3906C51.2891 20.3906 51.7552 20.4896 52.1406 20.6875C52.5312 20.8854 52.8568 21.1693 53.1172 21.5391C53.3776 21.9036 53.5807 22.3411 53.7266 22.8516C53.8776 23.3568 53.9896 23.9193 54.0625 24.5391V25.0625C53.9948 25.6667 53.8802 26.2188 53.7188 26.7188C53.5573 27.2188 53.3438 27.651 53.0781 28.0156C52.8125 28.3802 52.4844 28.6615 52.0938 28.8594C51.7083 29.0573 51.2526 29.1562 50.7266 29.1562C50.2109 29.1562 49.7448 29.0495 49.3281 28.8359C48.9167 28.6224 48.5625 28.3229 48.2656 27.9375C47.974 27.5521 47.75 27.099 47.5938 26.5781C47.4375 26.0521 47.3594 25.4818 47.3594 24.8672ZM49.2422 24.7031V24.8672C49.2422 25.2526 49.2786 25.612 49.3516 25.9453C49.4297 26.2786 49.5469 26.5729 49.7031 26.8281C49.8646 27.0781 50.0677 27.276 50.3125 27.4219C50.5625 27.5625 50.8568 27.6328 51.1953 27.6328C51.638 27.6328 52 27.5391 52.2812 27.3516C52.5677 27.1641 52.7865 26.9115 52.9375 26.5938C53.0938 26.2708 53.2031 25.9115 53.2656 25.5156V24.1016C53.2344 23.7943 53.1693 23.5078 53.0703 23.2422C52.9766 22.9766 52.849 22.7448 52.6875 22.5469C52.526 22.3438 52.3229 22.1875 52.0781 22.0781C51.8333 21.9635 51.5443 21.9062 51.2109 21.9062C50.8724 21.9062 50.5781 21.9792 50.3281 22.125C50.0781 22.2708 49.8724 22.4714 49.7109 22.7266C49.5547 22.9818 49.4375 23.2786 49.3594 23.6172C49.2812 23.9557 49.2422 24.3177 49.2422 24.7031ZM64.0312 17.625V29H62.0703V17.625H64.0312ZM68.6484 22.3516V29H66.7656V20.5469H68.5391L68.6484 22.3516ZM68.3125 24.4609L67.7031 24.4531C67.7083 23.8542 67.7917 23.3047 67.9531 22.8047C68.1198 22.3047 68.349 21.875 68.6406 21.5156C68.9375 21.1562 69.2917 20.8802 69.7031 20.6875C70.1146 20.4896 70.5729 20.3906 71.0781 20.3906C71.4844 20.3906 71.8516 20.4479 72.1797 20.5625C72.513 20.6719 72.7969 20.8516 73.0312 21.1016C73.2708 21.3516 73.4531 21.6771 73.5781 22.0781C73.7031 22.474 73.7656 22.9609 73.7656 23.5391V29H71.875V23.5312C71.875 23.125 71.8151 22.8047 71.6953 22.5703C71.5807 22.3307 71.4115 22.1615 71.1875 22.0625C70.9688 21.9583 70.6953 21.9062 70.3672 21.9062C70.0443 21.9062 69.7552 21.974 69.5 22.1094C69.2448 22.2448 69.0286 22.4297 68.8516 22.6641C68.6797 22.8984 68.5469 23.1693 68.4531 23.4766C68.3594 23.7839 68.3125 24.112 68.3125 24.4609Z" fill="#749C03"/>
<rect x="1" y="1" width="101" height="46" stroke="#749C03" stroke-width="2"/>
</svg>
