<svg width="172" height="56" viewBox="0 0 172 56" fill="none" xmlns="http://www.w3.org/2000/svg">
<rect width="172" height="56" fill="white"/>
<path d="M41.76 20.04H43.12V23.28C43.12 27.44 40.88 31.3 37.92 32.8L36.9 31.44C39.58 30.16 41.76 26.7 41.76 23.28V20.04ZM42.04 20.04H43.4V23.28C43.4 26.58 45.56 29.9 48.24 31.14L47.24 32.46C44.3 31.02 42.04 27.3 42.04 23.28V20.04ZM50.12 18.46H51.78V36.58H50.12V18.46ZM60.3384 20.34H61.6984V21.8C61.6984 25.12 59.6984 27.88 56.6784 28.96L55.7984 27.66C58.5384 26.7 60.3384 24.38 60.3384 21.8V20.34ZM60.6384 20.34H61.9984V21.78C61.9984 24.18 63.7384 26.4 66.3984 27.3L65.5384 28.6C62.5584 27.56 60.6384 24.9 60.6384 21.78V20.34ZM56.3184 19.74H65.9784V21.1H56.3184V19.74ZM68.2584 18.48H69.9184V29.36H68.2584V18.48ZM69.4584 23.24H72.5984V24.62H69.4584V23.24ZM58.1784 30.32H69.9184V36.56H68.2584V31.7H58.1784V30.32ZM87.0369 18.48H88.6969V36.56H87.0369V18.48ZM88.2969 25.9H91.6569V27.3H88.2969V25.9ZM74.6969 21.36H85.3569V22.72H74.6969V21.36ZM80.0969 24.22C82.6569 24.22 84.4969 25.94 84.4969 28.38C84.4969 30.82 82.6569 32.54 80.0969 32.54C77.5569 32.54 75.6969 30.82 75.6969 28.38C75.6969 25.94 77.5569 24.22 80.0969 24.22ZM80.0969 25.6C78.4569 25.6 77.2769 26.74 77.2769 28.38C77.2769 30 78.4569 31.16 80.0969 31.16C81.7369 31.16 82.9169 30 82.9169 28.38C82.9169 26.74 81.7369 25.6 80.0969 25.6ZM79.2369 18.7H80.8969V21.98H79.2369V18.7ZM106.855 18.48H108.515V36.56H106.855V18.48ZM101.555 20.42H103.195C103.195 25.66 100.835 30.24 94.7953 33.2L93.9153 31.86C99.1353 29.34 101.555 25.5 101.555 20.7V20.42ZM94.7353 20.42H102.275V21.78H94.7353V20.42Z" fill="black"/>
<path d="M143.586 26.657L139.636 22.707C139.454 22.5184 139.353 22.2658 139.355 22.0036C139.358 21.7414 139.463 21.4906 139.648 21.3052C139.834 21.1198 140.084 21.0146 140.347 21.0123C140.609 21.01 140.861 21.1108 141.05 21.293L146.707 26.95C146.8 27.0426 146.874 27.1528 146.925 27.2741C146.975 27.3955 147.001 27.5256 147.001 27.657C147.001 27.7884 146.975 27.9185 146.925 28.0398C146.874 28.1612 146.8 28.2713 146.707 28.364L141.05 34.021C140.958 34.1165 140.847 34.1927 140.725 34.2451C140.603 34.2975 140.472 34.3251 140.339 34.3262C140.207 34.3274 140.075 34.3021 139.952 34.2518C139.829 34.2015 139.717 34.1273 139.624 34.0334C139.53 33.9395 139.455 33.8278 139.405 33.7049C139.355 33.582 139.33 33.4504 139.331 33.3176C139.332 33.1848 139.359 33.0536 139.412 32.9316C139.464 32.8096 139.54 32.6992 139.636 32.607L143.586 28.657H134C133.735 28.657 133.48 28.5516 133.293 28.3641C133.105 28.1766 133 27.9222 133 27.657C133 27.3918 133.105 27.1374 133.293 26.9499C133.48 26.7623 133.735 26.657 134 26.657H143.586Z" fill="black"/>
</svg>
