<svg width="74" height="19" viewBox="0 0 74 19" fill="none" xmlns="http://www.w3.org/2000/svg">
<path d="M7.20312 10.5117H2.82031L2.79688 8.09766H6.47656C7.125 8.09766 7.65625 8.01562 8.07031 7.85156C8.48438 7.67969 8.79297 7.43359 8.99609 7.11328C9.20703 6.78516 9.3125 6.38672 9.3125 5.91797C9.3125 5.38672 9.21094 4.95703 9.00781 4.62891C8.8125 4.30078 8.50391 4.0625 8.08203 3.91406C7.66797 3.76562 7.13281 3.69141 6.47656 3.69141H4.03906V18H0.523438V0.9375H6.47656C7.46875 0.9375 8.35547 1.03125 9.13672 1.21875C9.92578 1.40625 10.5938 1.69141 11.1406 2.07422C11.6875 2.45703 12.1055 2.94141 12.3945 3.52734C12.6836 4.10547 12.8281 4.79297 12.8281 5.58984C12.8281 6.29297 12.668 6.94141 12.3477 7.53516C12.0352 8.12891 11.5391 8.61328 10.8594 8.98828C10.1875 9.36328 9.30859 9.57031 8.22266 9.60938L7.20312 10.5117ZM7.05078 18H1.85938L3.23047 15.2578H7.05078C7.66797 15.2578 8.17188 15.1602 8.5625 14.9648C8.95312 14.7617 9.24219 14.4883 9.42969 14.1445C9.61719 13.8008 9.71094 13.4062 9.71094 12.9609C9.71094 12.4609 9.625 12.0273 9.45312 11.6602C9.28906 11.293 9.02344 11.0117 8.65625 10.8164C8.28906 10.6133 7.80469 10.5117 7.20312 10.5117H3.81641L3.83984 8.09766H8.05859L8.86719 9.04688C9.90625 9.03125 10.7422 9.21484 11.375 9.59766C12.0156 9.97266 12.4805 10.4609 12.7695 11.0625C13.0664 11.6641 13.2148 12.3086 13.2148 12.9961C13.2148 14.0898 12.9766 15.0117 12.5 15.7617C12.0234 16.5039 11.3242 17.0625 10.4023 17.4375C9.48828 17.8125 8.37109 18 7.05078 18ZM23.1406 14.9648V5.32031H26.5156V18H23.3398L23.1406 14.9648ZM23.5156 12.3633L24.5117 12.3398C24.5117 13.1836 24.4141 13.9688 24.2188 14.6953C24.0234 15.4141 23.7305 16.0391 23.3398 16.5703C22.9492 17.0938 22.457 17.5039 21.8633 17.8008C21.2695 18.0898 20.5703 18.2344 19.7656 18.2344C19.1484 18.2344 18.5781 18.1484 18.0547 17.9766C17.5391 17.7969 17.0938 17.5195 16.7188 17.1445C16.3516 16.7617 16.0625 16.2734 15.8516 15.6797C15.6484 15.0781 15.5469 14.3555 15.5469 13.5117V5.32031H18.9219V13.5352C18.9219 13.9102 18.9648 14.2266 19.0508 14.4844C19.1445 14.7422 19.2734 14.9531 19.4375 15.1172C19.6016 15.2812 19.793 15.3984 20.0117 15.4688C20.2383 15.5391 20.4883 15.5742 20.7617 15.5742C21.457 15.5742 22.0039 15.4336 22.4023 15.1523C22.8086 14.8711 23.0938 14.4883 23.2578 14.0039C23.4297 13.5117 23.5156 12.9648 23.5156 12.3633ZM36.582 15.2344V0H39.9805V18H36.9219L36.582 15.2344ZM28.5664 11.8125V11.5664C28.5664 10.5977 28.6758 9.71875 28.8945 8.92969C29.1133 8.13281 29.4336 7.44922 29.8555 6.87891C30.2773 6.30859 30.7969 5.86719 31.4141 5.55469C32.0312 5.24219 32.7344 5.08594 33.5234 5.08594C34.2656 5.08594 34.9141 5.24219 35.4688 5.55469C36.0312 5.86719 36.5078 6.3125 36.8984 6.89062C37.2969 7.46094 37.6172 8.13672 37.8594 8.91797C38.1016 9.69141 38.2773 10.5391 38.3867 11.4609V12C38.2773 12.8828 38.1016 13.7031 37.8594 14.4609C37.6172 15.2188 37.2969 15.8828 36.8984 16.4531C36.5078 17.0156 36.0312 17.4531 35.4688 17.7656C34.9062 18.0781 34.25 18.2344 33.5 18.2344C32.7109 18.2344 32.0078 18.0742 31.3906 17.7539C30.7812 17.4336 30.2656 16.9844 29.8438 16.4062C29.4297 15.8281 29.1133 15.1484 28.8945 14.3672C28.6758 13.5859 28.5664 12.7344 28.5664 11.8125ZM31.9414 11.5664V11.8125C31.9414 12.3359 31.9805 12.8242 32.0586 13.2773C32.1445 13.7305 32.2812 14.1328 32.4688 14.4844C32.6641 14.8281 32.9141 15.0977 33.2188 15.293C33.5312 15.4805 33.9102 15.5742 34.3555 15.5742C34.9336 15.5742 35.4102 15.4453 35.7852 15.1875C36.1602 14.9219 36.4453 14.5586 36.6406 14.0977C36.8438 13.6367 36.9609 13.1055 36.9922 12.5039V10.9688C36.9688 10.4766 36.8984 10.0352 36.7812 9.64453C36.6719 9.24609 36.5078 8.90625 36.2891 8.625C36.0781 8.34375 35.8125 8.125 35.4922 7.96875C35.1797 7.8125 34.8086 7.73438 34.3789 7.73438C33.9414 7.73438 33.5664 7.83594 33.2539 8.03906C32.9414 8.23438 32.6875 8.50391 32.4922 8.84766C32.3047 9.19141 32.1641 9.59766 32.0703 10.0664C31.9844 10.5273 31.9414 11.0273 31.9414 11.5664ZM50.1055 15.2344V0H53.5039V18H50.4453L50.1055 15.2344ZM42.0898 11.8125V11.5664C42.0898 10.5977 42.1992 9.71875 42.418 8.92969C42.6367 8.13281 42.957 7.44922 43.3789 6.87891C43.8008 6.30859 44.3203 5.86719 44.9375 5.55469C45.5547 5.24219 46.2578 5.08594 47.0469 5.08594C47.7891 5.08594 48.4375 5.24219 48.9922 5.55469C49.5547 5.86719 50.0312 6.3125 50.4219 6.89062C50.8203 7.46094 51.1406 8.13672 51.3828 8.91797C51.625 9.69141 51.8008 10.5391 51.9102 11.4609V12C51.8008 12.8828 51.625 13.7031 51.3828 14.4609C51.1406 15.2188 50.8203 15.8828 50.4219 16.4531C50.0312 17.0156 49.5547 17.4531 48.9922 17.7656C48.4297 18.0781 47.7734 18.2344 47.0234 18.2344C46.2344 18.2344 45.5312 18.0742 44.9141 17.7539C44.3047 17.4336 43.7891 16.9844 43.3672 16.4062C42.9531 15.8281 42.6367 15.1484 42.418 14.3672C42.1992 13.5859 42.0898 12.7344 42.0898 11.8125ZM45.4648 11.5664V11.8125C45.4648 12.3359 45.5039 12.8242 45.582 13.2773C45.668 13.7305 45.8047 14.1328 45.9922 14.4844C46.1875 14.8281 46.4375 15.0977 46.7422 15.293C47.0547 15.4805 47.4336 15.5742 47.8789 15.5742C48.457 15.5742 48.9336 15.4453 49.3086 15.1875C49.6836 14.9219 49.9688 14.5586 50.1641 14.0977C50.3672 13.6367 50.4844 13.1055 50.5156 12.5039V10.9688C50.4922 10.4766 50.4219 10.0352 50.3047 9.64453C50.1953 9.24609 50.0312 8.90625 49.8125 8.625C49.6016 8.34375 49.3359 8.125 49.0156 7.96875C48.7031 7.8125 48.332 7.73438 47.9023 7.73438C47.4648 7.73438 47.0898 7.83594 46.7773 8.03906C46.4648 8.23438 46.2109 8.50391 46.0156 8.84766C45.8281 9.19141 45.6875 9.59766 45.5938 10.0664C45.5078 10.5273 45.4648 11.0273 45.4648 11.5664ZM59.7031 0V18H56.3164V0H59.7031ZM68.3281 18.2344C67.3438 18.2344 66.4609 18.0781 65.6797 17.7656C64.8984 17.4453 64.2344 17.0039 63.6875 16.4414C63.1484 15.8789 62.7344 15.2266 62.4453 14.4844C62.1562 13.7344 62.0117 12.9375 62.0117 12.0938V11.625C62.0117 10.6641 62.1484 9.78516 62.4219 8.98828C62.6953 8.19141 63.0859 7.5 63.5938 6.91406C64.1094 6.32812 64.7344 5.87891 65.4688 5.56641C66.2031 5.24609 67.0312 5.08594 67.9531 5.08594C68.8516 5.08594 69.6484 5.23438 70.3438 5.53125C71.0391 5.82812 71.6211 6.25 72.0898 6.79688C72.5664 7.34375 72.9258 8 73.168 8.76562C73.4102 9.52344 73.5312 10.3672 73.5312 11.2969V12.7031H63.4531V10.4531H70.2148V10.1953C70.2148 9.72656 70.1289 9.30859 69.957 8.94141C69.793 8.56641 69.543 8.26953 69.207 8.05078C68.8711 7.83203 68.4414 7.72266 67.918 7.72266C67.4727 7.72266 67.0898 7.82031 66.7695 8.01562C66.4492 8.21094 66.1875 8.48438 65.9844 8.83594C65.7891 9.1875 65.6406 9.60156 65.5391 10.0781C65.4453 10.5469 65.3984 11.0625 65.3984 11.625V12.0938C65.3984 12.6016 65.4688 13.0703 65.6094 13.5C65.7578 13.9297 65.9648 14.3008 66.2305 14.6133C66.5039 14.9258 66.832 15.168 67.2148 15.3398C67.6055 15.5117 68.0469 15.5977 68.5391 15.5977C69.1484 15.5977 69.7148 15.4805 70.2383 15.2461C70.7695 15.0039 71.2266 14.6406 71.6094 14.1562L73.25 15.9375C72.9844 16.3203 72.6211 16.6875 72.1602 17.0391C71.707 17.3906 71.1602 17.6797 70.5195 17.9062C69.8789 18.125 69.1484 18.2344 68.3281 18.2344Z" fill="#749C03"/>
</svg>
